<svg xmlns="http://www.w3.org/2000/svg" viewBox="0 0 64 64" role="img" aria-label="Open book icon">
  <defs>
    <linearGradient id="page" x1="0%" y1="0%" x2="100%" y2="100%">
      <stop offset="0%" stop-color="#f8fafc"/>
      <stop offset="100%" stop-color="#e2e8f0"/>
    </linearGradient>
  </defs>
  <rect width="64" height="64" rx="12" ry="12" fill="#0f172a"/>
  <path d="M12 16h18c3 0 5 1 6 2 1-1 3-2 6-2h18v32H42c-3 0-5 1-6 2-1-1-3-2-6-2H12V16z" fill="url(#page)"/>
  <path d="M32 18v28" stroke="#2563eb" stroke-width="2" stroke-linecap="round"/>
  <path d="M18 22h10M18 28h10M18 34h10M36 22h10M36 28h10M36 34h10" stroke="#94a3b8" stroke-width="2" stroke-linecap="round"/>
  <path d="M12 16h18c3 0 5 1 6 2 1-1 3-2 6-2h18v32H42c-3 0-5 1-6 2-1-1-3-2-6-2H12V16z" fill="none" stroke="#2563eb" stroke-width="2" stroke-linejoin="round"/>
</svg>
